<?xml version="1.0" encoding="UTF-8"?>
<svg id="Capa_1" data-name="Capa 1" xmlns="http://www.w3.org/2000/svg" viewBox="0 0 1500 1000">
  <defs>
    <style>
      .cls-1 {
        fill: #fff;
      }
    </style>
  </defs>
  <g>
    <path class="cls-1" d="M74.41,445.41h37.02l24.52,34.67h1.25l24.52-34.67h37.02v109.33h-36.55v-57.17h-.94l-24.05,31.71h-1.25l-24.05-31.71h-.94v57.17h-36.55v-109.33Z"/>
    <path class="cls-1" d="M245.59,485.55v9.22h57.79v25.3h-57.79v9.37h57.79v25.3h-89.81v-94.5h89.81v25.3h-57.79Z"/>
    <path class="cls-1" d="M344.3,485.55h-31.55v-25.3h95.12v25.3h-31.55v69.19h-32.02v-69.19Z"/>
    <path class="cls-1" d="M476.59,543.81h-34.05l-3.12,10.93h-35.92l31.55-94.5h49.04l31.55,94.5h-35.92l-3.12-10.93ZM469.57,518.51l-9.21-32.96h-1.56l-9.22,32.96h19.99Z"/>
    <path class="cls-1" d="M520.33,525.85h57.01c4.84,0,7.18-2.19,7.18-5.78s-2.34-5.62-7.34-5.62h-25.93c-18.27,0-33.11-12.5-33.11-34.52,0-25.3,17.34-34.52,34.83-34.52h64.66v28.9h-55.76c-4.22,0-7.18,1.56-7.18,5.47s2.97,5.78,7.18,5.78h24.37c20.93,0,34.83,12.34,34.83,34.36,0,20.77-15.62,34.83-35.92,34.83h-65.29l.47-28.9Z"/>
    <path class="cls-1" d="M665.58,485.55v9.22h57.79v25.3h-57.79v9.37h57.79v25.3h-89.81v-94.5h89.81v25.3h-57.79Z"/>
    <path class="cls-1" d="M737.43,460.25h32.02l42.33,49.98h1.09v-49.98h32.02v94.5h-32.02l-42.17-48.73h-1.25v48.73h-32.02v-94.5Z"/>
    <path class="cls-1" d="M858.32,529.44h54.35c4.06,0,5.78-2.19,5.78-4.84,0-2.97-1.87-4.53-5.94-4.53h-24.52c-17.81,0-31.39-9.06-31.39-29.83,0-21.87,17.96-29.99,33.11-29.99h56.54v25.3h-51.54c-3.9,0-5.47,2.03-5.47,4.53s1.56,4.69,5.47,4.69h20.93c22.49,0,35.46,11.56,35.46,29.21s-13.43,30.77-34.99,30.77h-57.79v-25.3Z"/>
    <path class="cls-1" d="M995.6,485.55v9.22h57.79v25.3h-57.79v9.37h57.79v25.3h-89.81v-94.5h89.81v25.3h-57.79Z"/>
    <path class="cls-1" d="M1204.58,525.85v28.9h-93.4v-109.33h36.55v80.44h56.85Z"/>
    <path class="cls-1" d="M1207.7,499.92c0-31.08,25.3-56.23,56.39-56.23s56.38,25.15,56.38,56.23-25.3,56.39-56.38,56.39-56.39-25.15-56.39-56.39ZM1284.24,499.92c0-11.09-9.06-20.15-20.15-20.15s-20.15,9.06-20.15,20.15,9.06,20.3,20.15,20.3,20.15-9.06,20.15-20.3Z"/>
    <path class="cls-1" d="M1425.59,525.85v28.9h-93.4v-109.33h36.55v80.44h56.85Z"/>
  </g>
  <text/>
</svg>